<svg id="svg" xmlns="http://www.w3.org/2000/svg" xmlns:xlink="http://www.w3.org/1999/xlink" width="400" height="400" viewBox="0, 0, 400,400"><g id="svgg"><path id="path0" d="M222.500 24.566 C 222.500 37.415,176.959 172.509,167.618 187.370 C 165.697 190.427,163.271 189.970,152.046 184.437 C 128.663 172.910,113.856 173.595,100.979 186.798 C 98.378 189.465,89.800 193.040,81.918 194.743 C 63.144 198.799,62.269 201.186,77.200 207.609 C 85.834 211.323,90.019 214.737,91.069 218.919 C 93.163 227.263,106.009 241.276,114.966 244.986 C 119.086 246.692,124.777 251.844,127.615 256.435 C 139.809 276.167,166.334 294.868,203.750 310.114 L 226.250 319.282 226.954 351.470 C 227.754 388.056,227.786 388.121,245.243 389.004 C 252.333 389.363,261.351 390.988,265.282 392.617 C 269.214 394.245,276.102 395.038,280.590 394.379 C 285.078 393.719,291.198 394.295,294.191 395.657 C 300.187 398.388,312.500 396.282,312.500 392.526 C 312.500 391.217,303.586 368.457,292.692 341.948 C 281.798 315.439,270.405 285.589,267.375 275.615 C 264.346 265.641,258.577 252.292,254.555 245.951 C 250.534 239.611,247.583 234.156,247.997 233.830 C 248.411 233.504,254.375 231.862,261.250 230.180 C 276.879 226.356,295.017 216.615,304.036 207.202 L 310.935 200.000 300.126 200.000 L 289.316 200.000 300.987 187.522 C 319.490 167.741,328.197 143.790,312.727 155.227 C 302.604 162.712,302.251 161.781,307.432 141.250 C 309.861 131.625,312.646 118.125,313.620 111.250 L 315.392 98.750 302.696 111.156 C 288.252 125.270,288.189 125.217,295.097 104.712 C 300.076 89.932,308.487 41.710,306.910 36.981 C 306.474 35.673,299.251 43.410,290.858 54.176 C 282.465 64.942,269.327 80.500,261.662 88.750 L 247.725 103.750 247.569 95.000 C 247.073 67.163,222.500 -1.875,222.500 24.566 " stroke="none" fill="#25180e" fill-rule="evenodd"></path></g></svg>